<svg id="visual" viewBox="0 0 900 600" width="900" height="600" xmlns="http://www.w3.org/2000/svg" xmlns:xlink="http://www.w3.org/1999/xlink" version="1.1"><rect x="0" y="0" width="900" height="600" fill="#14532d"></rect><defs><linearGradient id="grad1_0" x1="33.3%" y1="0%" x2="100%" y2="100%"><stop offset="20%" stop-color="#14532d" stop-opacity="1"></stop><stop offset="80%" stop-color="#14532d" stop-opacity="1"></stop></linearGradient></defs><defs><linearGradient id="grad2_0" x1="0%" y1="0%" x2="66.7%" y2="100%"><stop offset="20%" stop-color="#14532d" stop-opacity="1"></stop><stop offset="80%" stop-color="#14532d" stop-opacity="1"></stop></linearGradient></defs><g transform="translate(900, 0)"><path d="M0 351.5C-39.1 348 -78.2 344.4 -102.9 316.7C-127.6 289 -137.9 237.2 -149.3 205.5C-160.7 173.8 -173 162.2 -209.5 152.2C-246 142.2 -306.6 133.7 -334.3 108.6C-362 83.5 -356.8 41.8 -351.5 0L0 0Z" fill="#a17a22"></path></g><g transform="translate(0, 600)"><path d="M0 -351.5C38.2 -350.7 76.3 -349.8 108.6 -334.3C140.9 -318.9 167.3 -288.8 188.1 -258.9C208.8 -229 223.9 -199.3 236.2 -171.6C248.5 -143.9 258 -118.2 276.8 -89.9C295.5 -61.6 323.5 -30.8 351.5 0L0 0Z" fill="#a17a22"></path></g></svg>