<svg id="visual" viewBox="0 0 900 600" width="900" height="600" xmlns="http://www.w3.org/2000/svg" xmlns:xlink="http://www.w3.org/1999/xlink" version="1.1"><rect x="0" y="0" width="900" height="600" fill="#14532d"></rect><defs><linearGradient id="grad1_0" x1="33.3%" y1="0%" x2="100%" y2="100%"><stop offset="20%" stop-color="#14532d" stop-opacity="1"></stop><stop offset="80%" stop-color="#14532d" stop-opacity="1"></stop></linearGradient></defs><defs><linearGradient id="grad2_0" x1="0%" y1="0%" x2="66.7%" y2="100%"><stop offset="20%" stop-color="#14532d" stop-opacity="1"></stop><stop offset="80%" stop-color="#14532d" stop-opacity="1"></stop></linearGradient></defs><g transform="translate(900, 0)"><path d="M0 459.7C-43 443.6 -86 427.5 -136 418.5C-185.9 409.4 -242.8 407.5 -270.2 371.9C-297.7 336.3 -295.7 267 -302.6 219.8C-309.5 172.7 -325.2 147.6 -352.8 114.6C-380.5 81.7 -420.1 40.8 -459.7 0L0 0Z" fill="#a17a22"></path></g><g transform="translate(0, 600)"><path d="M0 -459.7C54.2 -459.1 108.3 -458.4 137.8 -424.2C167.3 -389.9 172.1 -322 216.9 -298.5C261.7 -275 346.5 -295.9 371.9 -270.2C397.3 -244.5 363.3 -172.4 368.1 -119.6C372.8 -66.8 416.2 -33.4 459.7 0L0 0Z" fill="#a17a22"></path></g></svg>