<svg width="419" height="441" viewBox="0 0 419 441" fill="none" xmlns="http://www.w3.org/2000/svg">
<path d="M10.24 409V338.984L7.68 326.056L10.24 318.376H51.2C57.4293 318.376 63.0187 319.357 67.968 321.32C73.0027 323.197 76.9707 326.44 79.872 331.048C82.8587 335.571 84.352 341.843 84.352 349.864C84.352 357.885 82.7733 364.243 79.616 368.936C76.4587 373.544 72.064 376.829 66.432 378.792C60.8853 380.755 54.528 381.736 47.36 381.736H33.28V388.392L34.56 401.192L33.28 409H10.24ZM33.28 361.64H45.824C50.2613 361.64 53.8027 360.829 56.448 359.208C59.0933 357.501 60.416 354.387 60.416 349.864C60.416 346.707 59.776 344.36 58.496 342.824C57.216 341.203 55.424 340.136 53.12 339.624C50.9013 339.112 48.2987 338.856 45.312 338.856H32L33.28 361.64ZM109.95 344.872L93.694 328.488L109.95 312.232L126.206 328.488L109.95 344.872ZM98.43 409V366.632L95.742 356.392L98.302 348.584H121.47V409H98.43ZM157.949 410.28C152.146 410.28 147.496 408.573 143.997 405.16C140.498 401.747 138.749 397.437 138.749 392.232V364.328H129.405V352.168L137.469 345.896L146.557 330.024H161.661V348.584H179.581V365.224H161.661V392.616L179.581 392.488V406.44C179.581 406.44 178.557 406.781 176.509 407.464C174.546 408.061 171.944 408.659 168.701 409.256C165.458 409.939 161.874 410.28 157.949 410.28ZM193.615 409L191.055 401.32L193.615 388.52V318.376H256.975L263.375 322.216L254.927 340.136L243.407 338.856H216.655V352.936H251.087V372.776H235.983L216.655 371.496V388.52H254.927L270.159 400.808L262.607 409H193.615ZM304.268 440.104C302.135 440.104 299.703 440.019 296.972 439.848C294.241 439.763 292.023 439.635 290.316 439.464L274.7 431.912L281.1 415.272L301.196 421.8C312.545 421.8 318.22 417.064 318.22 407.592V405.16L316.94 404.52C315.745 405.715 313.825 406.952 311.18 408.232C308.62 409.427 304.567 410.024 299.02 410.024C295.009 410.024 291.127 409.043 287.372 407.08C283.617 405.032 280.545 401.789 278.156 397.352C275.852 392.915 274.7 387.155 274.7 380.072C274.7 372.136 275.895 365.779 278.284 361C280.673 356.136 283.703 352.595 287.372 350.376C291.127 348.157 295.009 347.048 299.02 347.048C303.457 347.048 307.084 347.688 309.9 348.968C312.801 350.248 314.721 351.485 315.66 352.68V348.456H338.828L340.108 356.136L338.7 363.816L338.828 408.872C338.828 416.211 337.377 422.184 334.476 426.792C331.66 431.4 327.649 434.771 322.444 436.904C317.324 439.037 311.265 440.104 304.268 440.104ZM308.62 391.976C310.156 391.976 311.564 391.763 312.844 391.336C314.124 390.909 315.063 390.525 315.66 390.184V366.248C315.319 365.992 314.679 365.736 313.74 365.48C312.801 365.224 311.521 365.096 309.9 365.096C306.572 365.096 303.927 366.163 301.964 368.296C300.001 370.429 299.02 373.885 299.02 378.664C299.02 383.357 299.959 386.771 301.836 388.904C303.713 390.952 305.975 391.976 308.62 391.976ZM378.018 440.104C375.885 440.104 373.453 440.019 370.722 439.848C367.991 439.763 365.773 439.635 364.066 439.464L348.45 431.912L354.85 415.272L374.946 421.8C386.295 421.8 391.97 417.064 391.97 407.592V405.16L390.69 404.52C389.495 405.715 387.575 406.952 384.93 408.232C382.37 409.427 378.317 410.024 372.77 410.024C368.759 410.024 364.877 409.043 361.122 407.08C357.367 405.032 354.295 401.789 351.906 397.352C349.602 392.915 348.45 387.155 348.45 380.072C348.45 372.136 349.645 365.779 352.034 361C354.423 356.136 357.453 352.595 361.122 350.376C364.877 348.157 368.759 347.048 372.77 347.048C377.207 347.048 380.834 347.688 383.65 348.968C386.551 350.248 388.471 351.485 389.41 352.68V348.456H412.578L413.858 356.136L412.45 363.816L412.578 408.872C412.578 416.211 411.127 422.184 408.226 426.792C405.41 431.4 401.399 434.771 396.194 436.904C391.074 439.037 385.015 440.104 378.018 440.104ZM382.37 391.976C383.906 391.976 385.314 391.763 386.594 391.336C387.874 390.909 388.813 390.525 389.41 390.184V366.248C389.069 365.992 388.429 365.736 387.49 365.48C386.551 365.224 385.271 365.096 383.65 365.096C380.322 365.096 377.677 366.163 375.714 368.296C373.751 370.429 372.77 373.885 372.77 378.664C372.77 383.357 373.709 386.771 375.586 388.904C377.463 390.952 379.725 391.976 382.37 391.976Z" fill="url(#paint0_linear_55_6)"/>
<g clip-path="url(#clip0_55_6)">
<path d="M321 178.8C321 254.246 269.322 298 199.5 298C129.678 298 78 254.246 78 178.8C78 103.354 129.678 0 199.5 0C269.322 0 321 103.354 321 178.8Z" fill="url(#paint1_linear_55_6)"/>
<path fill-rule="evenodd" clip-rule="evenodd" d="M132.693 209.266C130.2 211.759 126.819 213.16 123.293 213.16C119.768 213.16 116.386 211.759 113.893 209.266C111.401 206.773 110 203.392 110 199.867C110 196.341 111.401 192.96 113.893 190.467L158.175 146.199L158.268 146.106C161.886 142.562 166.748 140.578 171.813 140.578C176.877 140.578 181.739 142.562 185.357 146.106L185.45 146.199L208.049 168.798L239.231 135.823L225.414 122.006C224.022 120.612 223.074 118.838 222.691 116.906C222.307 114.974 222.504 112.972 223.258 111.152C224.011 109.333 225.287 107.777 226.924 106.682C228.561 105.587 230.486 105.002 232.455 105H280.975C283.617 105 286.152 106.05 288.02 107.918C289.889 109.787 290.939 112.322 290.939 114.964V163.484C290.937 165.453 290.352 167.378 289.257 169.015C288.162 170.652 286.606 171.928 284.787 172.681C282.967 173.435 280.965 173.632 279.033 173.248C277.101 172.864 275.327 171.917 273.933 170.525L258.03 154.609L222.106 192.619C220.331 194.451 218.211 195.915 215.868 196.925C213.526 197.935 211.007 198.472 208.456 198.506C205.905 198.539 203.373 198.068 201.005 197.119C198.637 196.17 196.48 194.763 194.657 192.978L194.564 192.885L171.806 170.14L132.693 209.266Z" fill="#AA7714"/>
</g>
<defs>
<linearGradient id="paint0_linear_55_6" x1="106.233" y1="378.962" x2="361.267" y2="363.538" gradientUnits="userSpaceOnUse">
<stop stop-color="#CC8315"/>
<stop offset="1" stop-color="#D69D2E"/>
</linearGradient>
<linearGradient id="paint1_linear_55_6" x1="78" y1="149" x2="321" y2="149" gradientUnits="userSpaceOnUse">
<stop stop-color="#FFDD66"/>
<stop offset="1" stop-color="#FFE287"/>
</linearGradient>
<clipPath id="clip0_55_6">
<rect width="243" height="298" fill="white" transform="translate(78)"/>
</clipPath>
</defs>
</svg>
